<?xml version="1.0" encoding="UTF-8"?>
<svg version="1.1" xmlns="http://www.w3.org/2000/svg" width="124" height="144">
<path d="M0 0 C-0.33 0.99 -0.66 1.98 -1 3 C-4.5625 4.6875 -4.5625 4.6875 -8 6 C-6.80375 6.515625 -5.6075 7.03125 -4.375 7.5625 C1.42709904 10.47383693 4.97005117 14.42512794 7.375 20.4375 C7.684375 21.7059375 7.684375 21.7059375 8 23 C9.65 19.7 11.3 16.4 13 13 C17 13 17 13 18.9296875 14.73046875 C29.9978287 28.71010894 35.34085026 44.41082054 33.56640625 62.3046875 C30.78398651 80.45757768 22.25595864 94.58878447 8.1875 106.3125 C5.17906034 108.31192667 3.74582726 109.06274259 0.12109375 108.7578125 C-1.89813312 108.20496029 -3.9008599 107.58844118 -5.8828125 106.9140625 C-10.88822571 105.44630975 -15.83209457 105.75260027 -21 106 C-21 105.34 -21 104.68 -21 104 C-19.33520508 102.73486328 -19.33520508 102.73486328 -17.01953125 101.3203125 C-16.18486328 100.80339844 -15.35019531 100.28648437 -14.49023438 99.75390625 C-13.60658203 99.21636719 -12.72292969 98.67882812 -11.8125 98.125 C-1.25547259 92.48048325 -1.25547259 92.48048325 5 83 C6.14742118 77.53128117 6.21886876 72.13426947 6.31640625 66.5703125 C6.3475779 65.084814 6.3475779 65.084814 6.37937927 63.56930542 C6.4445032 60.42127082 6.50358629 57.27315633 6.5625 54.125 C6.60572059 51.9843669 6.64933599 49.84374174 6.69335938 47.703125 C6.80014628 42.46883324 6.90198012 37.23446288 7 32 C2.62972025 33.22702805 2.62972025 33.22702805 -0.859375 35.9609375 C-2.56592798 40.5078492 -2.35489459 44.81296078 -2.25 49.625 C-2.24226563 51.05585937 -2.24226563 51.05585937 -2.234375 52.515625 C-2.19736518 57.84369631 -2.19736518 57.84369631 -1 63 C-0.29509736 70.15302845 -0.65282093 76.09642348 -5 82 C-9.44551128 86.89505736 -14.20596874 88.86029844 -20.75 89.1875 C-24 89 -24 89 -26 88 C-25.79149206 83.7255873 -24.96415273 81.78611434 -21.9375 78.9375 C-18.66090342 75.48104251 -18.59957987 72.74997183 -18.625 68.0625 C-18.7207633 66.04007033 -18.83612802 64.01805311 -19 62 C-25.89812905 67.7719039 -32.18402679 74.09629721 -38.51171875 80.4765625 C-39.10799072 81.07766846 -39.7042627 81.67877441 -40.31860352 82.2980957 C-41.38068298 83.37312924 -42.43898721 84.45191762 -43.49194336 85.53588867 C-45.32863117 87.41443447 -46.80449124 88.9050386 -49.1875 90.0625 C-51.53899746 91.27879179 -51.92346682 92.64300885 -53 95 C-68.83360643 95.26555315 -68.83360643 95.26555315 -73.3203125 92.64453125 C-74.98314927 90.51373768 -75.95687139 88.49605773 -77 86 C-77.5259375 84.97132812 -78.051875 83.94265625 -78.59375 82.8828125 C-86.16319905 67.13693028 -86.95699344 49.87429411 -81.20947266 33.40551758 C-75.37369691 17.96797239 -63.83751587 6.09975952 -49 -1 C-32.91614034 -7.21014535 -15.87411316 -6.57846131 0 0 Z M-14.125 25.625 C-17.10785384 29.40328154 -17.85675733 32.83359541 -18.4375 37.5625 C-17.86975602 42.02334558 -16.38809156 43.1389449 -13 46 C-11.35 47.65 -9.7 49.3 -8 51 C-8 42.09 -8 33.18 -8 24 C-11.91628091 23.59503326 -11.91628091 23.59503326 -14.125 25.625 Z M-30 34 C-32.23823372 37.39269111 -32.21188731 40.25318371 -32.125 44.25 C-32.10695312 45.32765625 -32.08890625 46.4053125 -32.0703125 47.515625 C-32.04710937 48.33546875 -32.02390625 49.1553125 -32 50 C-30.87411986 49.04270084 -29.7493285 48.08412105 -28.625 47.125 C-27.99851562 46.59132813 -27.37203125 46.05765625 -26.7265625 45.5078125 C-23.74500088 43.13161556 -23.74500088 43.13161556 -22.8046875 39.6171875 C-22.82789063 38.71226563 -22.85109375 37.80734375 -22.875 36.875 C-22.89304687 35.96492188 -22.91109375 35.05484375 -22.9296875 34.1171875 C-22.95289063 33.41851562 -22.97609375 32.71984375 -23 32 C-26.17370278 32 -27.3794668 32.30933342 -30 34 Z M-45 45 C-47.22216737 49.06845259 -47.23296485 52.69477074 -47.1953125 57.26953125 C-47.1924826 57.95053391 -47.18965271 58.63153656 -47.18673706 59.33317566 C-47.17560525 61.49313455 -47.15051457 63.65266794 -47.125 65.8125 C-47.11496111 67.28319711 -47.10583685 68.75390076 -47.09765625 70.22460938 C-47.07568913 73.81654286 -47.0412082 77.40822985 -47 81 C-45.2925002 79.71937515 -43.62626404 78.38232443 -42 77 C-42 76.34 -42 75.68 -42 75 C-41.34 75 -40.68 75 -40 75 C-39.93941406 74.24074219 -39.87882812 73.48148438 -39.81640625 72.69921875 C-39.73261719 71.70535156 -39.64882813 70.71148437 -39.5625 69.6875 C-39.48128906 68.70136719 -39.40007813 67.71523437 -39.31640625 66.69921875 C-39 64 -39 64 -38 61 C-37.9193378 59.51876453 -37.89238807 58.03417796 -37.90234375 56.55078125 C-37.90556641 55.70322266 -37.90878906 54.85566406 -37.91210938 53.98242188 C-37.92048828 53.10134766 -37.92886719 52.22027344 -37.9375 51.3125 C-37.94201172 50.41982422 -37.94652344 49.52714844 -37.95117188 48.60742188 C-37.96295017 46.40488013 -37.97939836 44.20247401 -38 42 C-40.59632774 42 -42.86082578 43.73395812 -45 45 Z " fill="#106C3C" transform="translate(88,33)"/>
<path d="M0 0 C0.66 0 1.32 0 2 0 C2.45375 1.11375 2.9075 2.2275 3.375 3.375 C4.72465986 6.96199008 4.72465986 6.96199008 7 9 C9.31765729 9.71927295 11.65095874 10.3909893 14 11 C14 11.66 14 12.32 14 13 C13.38511719 13.12375 12.77023438 13.2475 12.13671875 13.375 C7.1833674 14.52702031 7.1833674 14.52702031 3.734375 17.98046875 C2.80866734 20.42318945 2.80866734 20.42318945 2 24 C1.34 24 0.68 24 0 24 C-0.33 22.741875 -0.66 21.48375 -1 20.1875 C-1.97661861 17.49584383 -2.50494872 16.29976478 -4.98046875 14.80078125 C-7.42652106 13.87522247 -7.42652106 13.87522247 -11 13 C-11 12.34 -11 11.68 -11 11 C-9.906875 10.608125 -8.81375 10.21625 -7.6875 9.8125 C-4.06908844 8.27010639 -2.64151998 6.64782218 -1 3 C-0.67 2.01 -0.34 1.02 0 0 Z " fill="#D7B55B" transform="translate(86,4)"/>
<path d="M0 0 C0.66 0 1.32 0 2 0 C2.350625 0.928125 2.70125 1.85625 3.0625 2.8125 C5.59919019 6.9857645 7.4710174 7.46185496 12 9 C12 9.66 12 10.32 12 11 C10.3603125 11.556875 10.3603125 11.556875 8.6875 12.125 C5.45411511 13.4798799 5.01423545 13.97658038 3.0625 17.1875 C2.5365625 18.5796875 2.5365625 18.5796875 2 20 C1.34 20 0.68 20 0 20 C-0.37125 19.071875 -0.7425 18.14375 -1.125 17.1875 C-3.30942959 13.4739697 -5.06718759 12.57312496 -9 11 C-8.67 10.34 -8.34 9.68 -8 9 C-7.030625 8.773125 -6.06125 8.54625 -5.0625 8.3125 C-4.051875 7.879375 -3.04125 7.44625 -2 7 C-0.53977565 3.47548841 -0.53977565 3.47548841 0 0 Z " fill="#DBBD6E" transform="translate(95,29)"/>
<path d="M0 0 C0.66 0.33 1.32 0.66 2 1 C-5.26 8.26 -12.52 15.52 -20 23 C-20.66 22.67 -21.32 22.34 -22 22 C-14.66666667 14.66666667 -7.33333333 7.33333333 0 0 Z " fill="#E3ECE7" transform="translate(66,94)"/>
<path d="M0 0 C0.66 0.33 1.32 0.66 2 1 C2 1.66 2 2.32 2 3 C2.99 3 3.98 3 5 3 C5 3.99 5 4.98 5 6 C4.01 6 3.02 6 2 6 C1.67 6.99 1.34 7.98 1 9 C-0.65 7.35 -2.3 5.7 -4 4 C-2.68 2.68 -1.36 1.36 0 0 Z " fill="#E3D19E" transform="translate(103,19)"/>
<path d="M0 0 C0.66 0 1.32 0 2 0 C1 3 1 3 -2.25 4.6875 C-5.54126631 5.83944321 -7.5872117 6.31025348 -11 6 C-10 4 -10 4 -7.96875 3.18359375 C-7.1540625 2.93738281 -6.339375 2.69117188 -5.5 2.4375 C-2.48668507 1.67451663 -2.48668507 1.67451663 0 0 Z " fill="#C1D4CA" transform="translate(86,33)"/>
<path d="M0 0 C1.36125 0.37125 1.36125 0.37125 2.75 0.75 C2.75 1.41 2.75 2.07 2.75 2.75 C-2.2 4.235 -2.2 4.235 -7.25 5.75 C-7.25 3.75 -7.25 3.75 -5.625 1.5625 C-3.25 -0.25 -3.25 -0.25 0 0 Z " fill="#F1E9D4" transform="translate(97.25,14.25)"/>
<path d="M0 0 C0.33 0.66 0.66 1.32 1 2 C1.66 2 2.32 2 3 2 C2.34 3.65 1.68 5.3 1 7 C-0.32 5.68 -1.64 4.36 -3 3 C-2.01 2.01 -1.02 1.02 0 0 Z " fill="#E2D09C" transform="translate(110,28)"/>
<path d="M0 0 C2 0.8125 2 0.8125 3.25 2.875 C3.4975 3.514375 3.745 4.15375 4 4.8125 C1.36 4.1525 -1.28 3.4925 -4 2.8125 C-4 2.1525 -4 1.4925 -4 0.8125 C-2 -0.1875 -2 -0.1875 0 0 Z " fill="#E2CF99" transform="translate(79,14.1875)"/>
</svg>
